<mxfile host="app.diagrams.net" modified="2022-07-15T06:05:52.788Z" agent="5.0 (X11; Linux x86_64) AppleWebKit/537.36 (KHTML, like Gecko) Chrome/103.0.0.0 Safari/537.36" etag="sQ_w1nRdfUHG-iQGRrvZ" version="20.1.1" type="github">
  <diagram id="piigl4j1vujhoC6S9p2Q" name="第 1 页">
    <mxGraphModel dx="1422" dy="748" grid="1" gridSize="10" guides="1" tooltips="1" connect="1" arrows="1" fold="1" page="1" pageScale="1" pageWidth="827" pageHeight="1169" math="0" shadow="0">
      <root>
        <mxCell id="0" />
        <mxCell id="1" parent="0" />
        <mxCell id="SkgzqZ1u6GqGlq_mi14C-1" style="edgeStyle=orthogonalEdgeStyle;rounded=1;orthogonalLoop=1;jettySize=auto;html=1;exitX=1;exitY=0.5;exitDx=0;exitDy=0;entryX=0;entryY=0.5;entryDx=0;entryDy=0;sketch=1;curved=1;" edge="1" parent="1" source="SkgzqZ1u6GqGlq_mi14C-2" target="SkgzqZ1u6GqGlq_mi14C-4">
          <mxGeometry relative="1" as="geometry" />
        </mxCell>
        <mxCell id="SkgzqZ1u6GqGlq_mi14C-2" value="填写个人签署基本信息" style="rounded=1;whiteSpace=wrap;html=1;sketch=1;" vertex="1" parent="1">
          <mxGeometry x="184" y="170" width="120" height="60" as="geometry" />
        </mxCell>
        <mxCell id="SkgzqZ1u6GqGlq_mi14C-3" style="edgeStyle=orthogonalEdgeStyle;rounded=1;orthogonalLoop=1;jettySize=auto;html=1;exitX=1;exitY=0.5;exitDx=0;exitDy=0;entryX=0;entryY=0.5;entryDx=0;entryDy=0;sketch=1;curved=1;" edge="1" parent="1" source="SkgzqZ1u6GqGlq_mi14C-4" target="SkgzqZ1u6GqGlq_mi14C-6">
          <mxGeometry relative="1" as="geometry" />
        </mxCell>
        <mxCell id="SkgzqZ1u6GqGlq_mi14C-4" value="接收签署验证码" style="rounded=1;whiteSpace=wrap;html=1;sketch=1;align=center;" vertex="1" parent="1">
          <mxGeometry x="354" y="170" width="120" height="60" as="geometry" />
        </mxCell>
        <mxCell id="SkgzqZ1u6GqGlq_mi14C-6" value="提交完成签署" style="rounded=1;whiteSpace=wrap;html=1;sketch=1;" vertex="1" parent="1">
          <mxGeometry x="524" y="170" width="120" height="60" as="geometry" />
        </mxCell>
      </root>
    </mxGraphModel>
  </diagram>
</mxfile>
